<mxfile host="app.diagrams.net" modified="2023-10-04T20:06:23.443Z" agent="Mozilla/5.0 (X11; Ubuntu; Linux x86_64; rv:109.0) Gecko/20100101 Firefox/117.0" etag="V0zjftTKZqwqfttoFUc7" version="22.0.2" type="github">
  <diagram id="kgpKYQtTHZ0yAKxKKP6v" name="Page-1">
    <mxGraphModel dx="1314" dy="738" grid="1" gridSize="10" guides="1" tooltips="1" connect="1" arrows="1" fold="1" page="1" pageScale="1" pageWidth="850" pageHeight="1100" math="0" shadow="0">
      <root>
        <mxCell id="0" />
        <mxCell id="1" parent="0" />
        <mxCell id="RMzCRT8UT0Tl-QOBCZvK-1" value="ProjektStruktur" style="rounded=0;whiteSpace=wrap;html=1;" vertex="1" parent="1">
          <mxGeometry x="80" y="140" width="680" height="60" as="geometry" />
        </mxCell>
        <mxCell id="RMzCRT8UT0Tl-QOBCZvK-2" value="1.0&lt;br&gt;Modul QKD-Device" style="rounded=0;whiteSpace=wrap;html=1;" vertex="1" parent="1">
          <mxGeometry x="80" y="220" width="220" height="60" as="geometry" />
        </mxCell>
        <mxCell id="RMzCRT8UT0Tl-QOBCZvK-3" value="2.0&lt;br&gt;Modul QKD-Network" style="rounded=0;whiteSpace=wrap;html=1;" vertex="1" parent="1">
          <mxGeometry x="310" y="220" width="220" height="60" as="geometry" />
        </mxCell>
        <mxCell id="RMzCRT8UT0Tl-QOBCZvK-4" value="3.0&lt;br&gt;Modul Gesamtaufbau" style="rounded=0;whiteSpace=wrap;html=1;" vertex="1" parent="1">
          <mxGeometry x="540" y="220" width="220" height="60" as="geometry" />
        </mxCell>
        <mxCell id="RMzCRT8UT0Tl-QOBCZvK-5" value="1.1&lt;br&gt;Installation" style="rounded=0;whiteSpace=wrap;html=1;" vertex="1" parent="1">
          <mxGeometry x="80" y="310" width="220" height="60" as="geometry" />
        </mxCell>
        <mxCell id="RMzCRT8UT0Tl-QOBCZvK-8" value="2.1&lt;br&gt;Evaluierung des passenden Netzwerks" style="rounded=0;whiteSpace=wrap;html=1;" vertex="1" parent="1">
          <mxGeometry x="310" y="310" width="220" height="60" as="geometry" />
        </mxCell>
        <mxCell id="RMzCRT8UT0Tl-QOBCZvK-9" value="3.1&lt;br&gt;Evaluierung des passenden Netzwerks" style="rounded=0;whiteSpace=wrap;html=1;" vertex="1" parent="1">
          <mxGeometry x="540" y="310" width="220" height="60" as="geometry" />
        </mxCell>
        <mxCell id="RMzCRT8UT0Tl-QOBCZvK-10" value="2.2&lt;br&gt;Evaluierung des passenden Netzwerks" style="rounded=0;whiteSpace=wrap;html=1;" vertex="1" parent="1">
          <mxGeometry x="310" y="400" width="220" height="60" as="geometry" />
        </mxCell>
        <mxCell id="RMzCRT8UT0Tl-QOBCZvK-11" value="3.2&lt;br&gt;Evaluierung des passenden Netzwerks" style="rounded=0;whiteSpace=wrap;html=1;" vertex="1" parent="1">
          <mxGeometry x="540" y="400" width="220" height="60" as="geometry" />
        </mxCell>
        <mxCell id="RMzCRT8UT0Tl-QOBCZvK-12" value="1.2&lt;br&gt;Schnittstellen-Integration" style="rounded=0;whiteSpace=wrap;html=1;" vertex="1" parent="1">
          <mxGeometry x="80" y="400" width="220" height="60" as="geometry" />
        </mxCell>
      </root>
    </mxGraphModel>
  </diagram>
</mxfile>
